<?xml version="1.0" encoding="UTF-8"?>
<svg width="251px" height="30px" viewBox="0 0 251 30" version="1.1" xmlns="http://www.w3.org/2000/svg" xmlns:xlink="http://www.w3.org/1999/xlink">
    <!-- Generator: sketchtool 53 (72520) - https://sketchapp.com -->
    <title>BD306756-478C-486D-9B3E-CEEAFB90A353</title>
    <desc>Created with sketchtool.</desc>
    <g id="Symbols" stroke="none" stroke-width="1" fill="none" fill-rule="evenodd">
        <g id="TOP_NAV" transform="translate(0.000000, -1.000000)">
            <g id="Logo_TEQ">
                <g>
                    <path d="M5.88607595,1 L17.1139241,1 C20.364714,1 23,3.63528597 23,6.88607595 L0,6.88607595 C-3.98106955e-16,3.63528597 2.63528597,1 5.88607595,1 Z M14.0967742,9.92405063 L14.0967742,28.4032258 C14.0967742,29.8373846 12.9341588,31 11.5,31 C10.0658412,31 8.90322581,29.8373846 8.90322581,28.4032258 L8.90322581,15.117599 C8.90322581,12.2492814 11.2284566,9.92405063 14.0967742,9.92405063 Z M35.6557377,6.88607595 L35.6557377,25.1139241 L50.056962,25.1139241 C51.682357,25.1139241 53,26.431567 53,28.056962 C53,29.682357 51.682357,31 50.056962,31 L41.3532891,31 C38.1125551,31 35.483523,28.3809928 35.4672887,25.1440742 C32.4309473,25.0446687 30,22.5519319 30,19.4914169 L30,12.3519402 C30,9.29047283 32.4324606,6.79713702 35.4701237,6.69919082 C35.568818,3.53488375 38.1650266,1 41.3532891,1 L50.056962,1 C51.682357,1 53,2.31764298 53,3.94303797 C53,5.56843297 51.682357,6.88607595 50.056962,6.88607595 L35.6557377,6.88607595 Z M39.7231791,13.9113924 L46.6702635,13.9113924 C47.7713376,13.9113924 48.6639344,14.8039893 48.6639344,15.9050633 C48.6639344,17.0061373 47.7713376,17.8987342 46.6702635,17.8987342 L39.7231791,17.8987342 C38.6221051,17.8987342 37.7295082,17.0061373 37.7295082,15.9050633 C37.7295082,14.8039893 38.6221051,13.9113924 39.7231791,13.9113924 Z M64.732484,11.7470201 C64.8676518,11.6932939 65.0066215,11.6461408 65.1481953,11.6067511 C65.3205945,11.5578059 65.4314225,11.3987342 65.4314225,11.2274262 L65.4314225,10.3586498 C65.4314225,10.2240506 65.5422505,10.1139241 65.677707,10.1139241 L66.933758,10.1139241 C67.0692144,10.1139241 67.1800425,10.2240506 67.1800425,10.3586498 L67.1800425,11.2274262 C67.1800425,11.3987342 67.2908705,11.5578059 67.4632696,11.6067511 C67.7711253,11.6924051 68.0666667,11.8147679 68.3375796,11.9616034 C68.4853503,12.0472574 68.6823779,12.0227848 68.8055202,11.9004219 L69.4212314,11.2886076 C69.5197452,11.1907173 69.6798301,11.1907173 69.7783439,11.2886076 L70.6649682,12.1696203 C70.763482,12.2675105 70.763482,12.4265823 70.6649682,12.5244726 L70.0492569,13.1362869 C69.9261146,13.2586498 69.9014862,13.4421941 69.9876858,13.6012658 C70.1354565,13.8704641 70.2585987,14.164135 70.3447983,14.4700422 C70.3940552,14.6413502 70.5541401,14.7514768 70.7265393,14.7514768 L71.6008493,14.7514768 C71.7363057,14.7514768 71.8471338,14.8616034 71.8471338,14.9962025 L71.8471338,16.2443038 C71.8471338,16.378903 71.7363057,16.4890295 71.6008493,16.4890295 L70.7142251,16.4890295 C70.5418259,16.4890295 70.381741,16.5991561 70.3324841,16.7704641 C70.2462845,17.0763713 70.1231423,17.3700422 69.9753715,17.6392405 C69.889172,17.7860759 69.9138004,17.9818565 70.0369427,18.1042194 L70.6526539,18.7160338 C70.7511677,18.8139241 70.7511677,18.9729958 70.6526539,19.0708861 L69.7660297,19.9518987 C69.6675159,20.049789 69.507431,20.049789 69.4089172,19.9518987 L68.7932059,19.3400844 C68.6700637,19.2177215 68.4853503,19.1932489 68.3252654,19.278903 C68.0543524,19.4257384 67.758811,19.5481013 67.4509554,19.6337553 C67.2785563,19.6827004 67.1677282,19.8417722 67.1677282,20.0130802 L67.1677282,20.8818565 C67.1677282,21.0164557 67.0569002,21.1265823 66.9214437,21.1265823 L65.677707,21.1265823 C65.5422505,21.1265823 65.4314225,21.0164557 65.4314225,20.8818565 L65.4314225,20.0008439 C65.4314225,19.8295359 65.3205945,19.6704641 65.1481953,19.621519 C65.0066215,19.5821292 64.8676518,19.5349762 64.732484,19.4812499 L64.732484,25.1471546 C62.1188053,25.1471546 60,23.0283494 60,20.4146706 L60,11.4286865 C60,8.81500779 62.1188053,6.69620253 64.732484,6.69620253 L64.732484,11.7470201 Z M64.732484,17.4880492 C65.1579883,17.8421949 65.7065617,18.0552743 66.3057325,18.0552743 C67.6602972,18.0552743 68.7562633,16.9662447 68.7562633,15.6202532 C68.7562633,14.2742616 67.6602972,13.1852321 66.3057325,13.1852321 C65.7065617,13.1852321 65.1579883,13.3983114 64.732484,13.7524571 L64.732484,17.4880492 Z M71.61856,1 L78.38144,1 C81.63223,1 84.2675159,3.63528597 84.2675159,6.88607595 L65.7324841,6.88607595 C65.7324841,3.63528597 68.36777,1 71.61856,1 Z M80.2547771,19.2158228 C80.2547771,19.3156118 80.1726115,19.3972574 80.0721868,19.3972574 L79.414862,19.3972574 C79.2870488,19.3972574 79.1683652,19.478903 79.1318471,19.6059072 C79.0679406,19.8327004 78.9766454,20.0504219 78.8670913,20.25 C78.8031847,20.3588608 78.8214437,20.5040084 78.9127389,20.5947257 L79.3692144,21.0483122 C79.4422505,21.1208861 79.4422505,21.2388186 79.3692144,21.3113924 L78.7118896,21.964557 C78.6388535,22.0371308 78.5201699,22.0371308 78.4471338,21.964557 L77.9906582,21.5109705 C77.8993631,21.4202532 77.7624204,21.4021097 77.6437367,21.4656118 C77.4428875,21.5744726 77.2237792,21.6651899 76.9955414,21.728692 C76.8677282,21.7649789 76.7855626,21.8829114 76.7855626,22.0099156 L76.7855626,22.6540084 C76.7855626,22.7537975 76.703397,22.835443 76.6029724,22.835443 L75.6808917,22.835443 C75.5804671,22.835443 75.4983015,22.7537975 75.4983015,22.6540084 L75.4983015,22.0008439 C75.4983015,21.8738397 75.4161359,21.7559072 75.2883227,21.7196203 C75.0600849,21.6561181 74.8409766,21.5654008 74.6401274,21.4565401 C74.5305732,21.393038 74.3845011,21.4111814 74.2932059,21.5018987 L73.8367304,21.9554852 C73.7636943,22.0280591 73.6450106,22.0280591 73.5719745,21.9554852 L72.9146497,21.3023207 C72.8416136,21.2297468 72.8416136,21.1118143 72.9146497,21.0392405 L73.3711253,20.585654 C73.4624204,20.4949367 73.4806794,20.3588608 73.4167728,20.2409283 C73.3072187,20.0413502 73.2159236,19.8236287 73.152017,19.5968354 C73.1154989,19.4698312 72.9968153,19.3881857 72.8690021,19.3881857 L72.2208068,19.3881857 C72.1203822,19.3881857 72.0382166,19.3065401 72.0382166,19.2067511 L72.0382166,18.2905063 C72.0382166,18.1907173 72.1203822,18.1090717 72.2208068,18.1090717 L72.8690021,18.1090717 C72.9968153,18.1090717 73.1154989,18.0274262 73.152017,17.9004219 C73.2159236,17.6736287 73.3072187,17.4559072 73.4167728,17.2563291 C73.4806794,17.1474684 73.4624204,17.0023207 73.3711253,16.9116034 L72.9146497,16.4580169 C72.8416136,16.385443 72.8416136,16.2675105 72.9146497,16.1949367 L73.5719745,15.5417722 C73.6450106,15.4691983 73.7636943,15.4691983 73.8367304,15.5417722 L74.2932059,15.9953586 C74.3845011,16.0860759 74.5214437,16.1042194 74.6401274,16.0407173 C74.8409766,15.9318565 75.0600849,15.8411392 75.2883227,15.7776371 C75.4161359,15.7413502 75.4983015,15.6234177 75.4983015,15.4964135 L75.4983015,14.8523207 C75.4983015,14.7525316 75.5804671,14.6708861 75.6808917,14.6708861 L76.6121019,14.6708861 C76.7125265,14.6708861 76.7946921,14.7525316 76.7946921,14.8523207 L76.7946921,15.4964135 C76.7946921,15.6234177 76.8768577,15.7413502 77.0046709,15.7776371 C77.2329087,15.8411392 77.452017,15.9318565 77.6528662,16.0407173 C77.7624204,16.1042194 77.9084926,16.0860759 77.9997877,15.9953586 L78.4562633,15.5417722 C78.5292994,15.4691983 78.647983,15.4691983 78.7210191,15.5417722 L79.3783439,16.1949367 C79.45138,16.2675105 79.45138,16.385443 79.3783439,16.4580169 L78.9218684,16.9116034 C78.8305732,17.0023207 78.8123142,17.1383966 78.8762208,17.2563291 C78.9857749,17.4559072 79.0770701,17.6736287 79.1409766,17.9004219 C79.1774947,18.0274262 79.2961783,18.1090717 79.4239915,18.1090717 L80.0721868,18.1090717 C80.1726115,18.1090717 80.2547771,18.1907173 80.2547771,18.2905063 L80.2547771,19.2158228 Z M76.1464968,20.5584388 C77.1507431,20.5584388 77.9632696,19.7510549 77.9632696,18.7531646 C77.9632696,17.7552743 77.1507431,16.9478903 76.1464968,16.9478903 C75.1422505,16.9478903 74.329724,17.7552743 74.329724,18.7531646 C74.329724,19.7510549 75.1422505,20.5584388 76.1464968,20.5584388 Z M76.8152866,11.806962 C76.8152866,11.8649789 76.7675159,11.9124473 76.7091295,11.9124473 L76.3269639,11.9124473 C76.2526539,11.9124473 76.1836518,11.9599156 76.1624204,12.0337553 C76.1252654,12.1656118 76.0721868,12.2921941 76.0084926,12.4082278 C75.9713376,12.471519 75.9819533,12.5559072 76.0350318,12.6086498 L76.3004246,12.8723629 C76.3428875,12.914557 76.3428875,12.9831224 76.3004246,13.0253165 L75.918259,13.4050633 C75.8757962,13.4472574 75.8067941,13.4472574 75.7643312,13.4050633 L75.4989384,13.1413502 C75.4458599,13.0886076 75.366242,13.0780591 75.2972399,13.1149789 C75.1804671,13.17827 75.0530786,13.2310127 74.9203822,13.2679325 C74.8460722,13.2890295 74.7983015,13.3575949 74.7983015,13.4314346 L74.7983015,13.8059072 C74.7983015,13.8639241 74.7505308,13.9113924 74.6921444,13.9113924 L74.156051,13.9113924 C74.0976645,13.9113924 74.0498938,13.8639241 74.0498938,13.8059072 L74.0498938,13.4261603 C74.0498938,13.3523207 74.0021231,13.2837553 73.9278132,13.2626582 C73.7951168,13.2257384 73.6677282,13.1729958 73.5509554,13.1097046 C73.4872611,13.0727848 73.4023355,13.0833333 73.3492569,13.1360759 L73.0838641,13.399789 C73.0414013,13.4419831 72.9723992,13.4419831 72.9299363,13.399789 L72.5477707,13.0200422 C72.5053079,12.9778481 72.5053079,12.9092827 72.5477707,12.8670886 L72.8131635,12.6033755 C72.866242,12.5506329 72.8768577,12.471519 72.8397028,12.4029536 C72.7760085,12.2869198 72.7229299,12.1603376 72.6857749,12.028481 C72.6645435,11.9546414 72.5955414,11.907173 72.5212314,11.907173 L72.1443737,11.907173 C72.0859873,11.907173 72.0382166,11.8597046 72.0382166,11.8016878 L72.0382166,11.2689873 C72.0382166,11.2109705 72.0859873,11.1635021 72.1443737,11.1635021 L72.5212314,11.1635021 C72.5955414,11.1635021 72.6645435,11.1160338 72.6857749,11.0421941 C72.7229299,10.9103376 72.7760085,10.7837553 72.8397028,10.6677215 C72.8768577,10.6044304 72.866242,10.5200422 72.8131635,10.4672996 L72.5477707,10.2035865 C72.5053079,10.1613924 72.5053079,10.092827 72.5477707,10.0506329 L72.9299363,9.67088608 C72.9723992,9.62869198 73.0414013,9.62869198 73.0838641,9.67088608 L73.3492569,9.93459916 C73.4023355,9.98734177 73.4819533,9.9978903 73.5509554,9.96097046 C73.6677282,9.89767932 73.7951168,9.84493671 73.9278132,9.80801688 C74.0021231,9.78691983 74.0498938,9.71835443 74.0498938,9.64451477 L74.0498938,9.27004219 C74.0498938,9.21202532 74.0976645,9.16455696 74.156051,9.16455696 L74.6974522,9.16455696 C74.7558386,9.16455696 74.8036093,9.21202532 74.8036093,9.27004219 L74.8036093,9.64451477 C74.8036093,9.71835443 74.85138,9.78691983 74.92569,9.80801688 C75.0583864,9.84493671 75.1857749,9.89767932 75.3025478,9.96097046 C75.366242,9.9978903 75.4511677,9.98734177 75.5042463,9.93459916 L75.7696391,9.67088608 C75.8121019,9.62869198 75.881104,9.62869198 75.9235669,9.67088608 L76.3057325,10.0506329 C76.3481953,10.092827 76.3481953,10.1613924 76.3057325,10.2035865 L76.0403397,10.4672996 C75.9872611,10.5200422 75.9766454,10.5991561 76.0138004,10.6677215 C76.0774947,10.7837553 76.1305732,10.9103376 76.1677282,11.0421941 C76.1889597,11.1160338 76.2579618,11.1635021 76.3322718,11.1635021 L76.7091295,11.1635021 C76.7675159,11.1635021 76.8152866,11.2109705 76.8152866,11.2689873 L76.8152866,11.806962 Z M74.4267516,12.5875527 C75.0106157,12.5875527 75.4830149,12.1181435 75.4830149,11.5379747 C75.4830149,10.9578059 75.0106157,10.4883966 74.4267516,10.4883966 C73.8428875,10.4883966 73.3704883,10.9578059 73.3704883,11.5379747 C73.3704883,12.1181435 73.8428875,12.5875527 74.4267516,12.5875527 Z M71.61856,31 C68.36777,31 65.7324841,28.364714 65.7324841,25.1139241 L72.977209,25.1139241 C75.1826568,25.1139241 77.2902734,26.0243912 78.8020359,27.6301852 L79.2038217,28.056962 C79.5087749,28.3808834 79.6785874,28.8089905 79.6785874,29.2538742 C79.6785874,30.2182329 78.8968202,31 77.9324616,31 L71.61856,31 Z M84.2675159,6.69620253 C87.4334795,6.69620253 90,9.26272307 90,12.4286866 L90,22.2300376 C90,23.1409438 89.2615647,23.8793791 88.3506585,23.8793791 C87.8877801,23.8793791 87.4462048,23.6848735 87.133758,23.3433572 L86.6272265,22.789699 C85.1093284,21.1305788 84.2675159,18.9633319 84.2675159,16.7146224 L84.2675159,6.69620253 Z M84.3198465,24.2451812 L87.5626292,27.46744 C88.3412062,28.2410892 88.3452008,29.4994171 87.5715516,30.277994 C87.568587,30.2809776 87.5656128,30.2839517 87.5626292,30.2869164 C86.7776404,31.066937 85.5101833,31.066937 84.7251944,30.2869164 L81.4824117,27.0646576 C80.7038348,26.2910084 80.6998401,25.0326805 81.4734893,24.2541036 C81.476454,24.2511201 81.4794281,24.2481459 81.4824117,24.2451812 C82.2674006,23.4651607 83.5348577,23.4651607 84.3198465,24.2451812 Z" fill="#E10074"></path>
                    <text id="TRANSFORMATION---ENG" font-family="Tele-Grotesk-Fett, Tele-GroteskFet" font-size="12" font-weight="normal" line-spacing="16" letter-spacing="0.5" fill="#6A6A6A">
                        <tspan x="123" y="12">TRANSFORMATION - </tspan>
                        <tspan x="123" y="28">ENGINEERING - QUALIT</tspan>
                        <tspan x="241.9375" y="28">Y</tspan>
                    </text>
                    <path d="M108.5,1 L108.5,31" id="Line" stroke="#9B9B9B" opacity="0.5" stroke-linecap="square"></path>
                </g>
            </g>
        </g>
    </g>
</svg>